<svg width="395" height="118" viewBox="0 0 395 118" fill="none" xmlns="http://www.w3.org/2000/svg">
<rect width="118" height="118" rx="49" fill="#93DBEB"/>
<path d="M99.625 93.375H80.6367C88.9149 88.1595 95.0315 80.1304 97.8615 70.7645C100.692 61.3987 100.045 51.3259 96.0398 42.3989C92.035 33.472 84.9416 26.2913 76.0643 22.1776C67.187 18.0638 57.1229 17.2938 47.7231 20.009C38.3233 22.7242 30.22 28.7422 24.9036 36.9559C19.5873 45.1696 17.4154 55.0267 18.7875 64.7141C20.1597 74.4015 24.9835 83.2677 32.3718 89.6819C39.7601 96.0962 49.2159 99.627 59 99.625H99.625C100.454 99.625 101.249 99.2958 101.835 98.7097C102.421 98.1237 102.75 97.3288 102.75 96.5C102.75 95.6712 102.421 94.8763 101.835 94.2903C101.249 93.7042 100.454 93.375 99.625 93.375ZM59 24.625C65.0253 24.6184 70.9453 26.2045 76.1602 29.2227C72.3941 30.9255 68.7547 32.8954 65.2695 35.1172C59.7528 31.5993 53.8559 28.7164 47.6914 26.5234C51.3272 25.2585 55.1505 24.6166 59 24.625ZM39.6875 30.5781C46.6919 32.4737 53.4077 35.308 59.6523 39.0039C56.9838 41.0124 54.4315 43.1708 52.0078 45.4688C45.5946 42.056 38.6951 39.649 31.5508 38.332C33.8228 35.3216 36.5712 32.7025 39.6875 30.5781ZM28.0312 44.0859C34.7772 45.0718 41.3253 47.1165 47.4336 50.1445C45.2644 52.5283 43.2263 55.0281 41.3281 57.6328C36.1854 55.3245 30.7222 53.8098 25.125 53.1406C25.6671 50.0017 26.6453 46.954 28.0312 44.0859ZM24.625 59.3906C29.1454 59.9494 33.5665 61.1325 37.7617 62.9063C34.8002 67.6609 32.3055 72.6908 30.3125 77.9258C26.6676 72.4258 24.6923 65.9884 24.625 59.3906ZM34.9453 83.5352C38.6973 72.2788 44.8536 61.9736 52.9872 53.3348C61.1208 44.696 71.0367 37.9305 82.0469 33.5078C84.5137 35.7397 86.6475 38.3142 88.3828 41.1523C77.4989 44.96 67.6916 51.3318 59.7897 59.7294C51.8878 68.1269 46.1237 78.3033 42.9844 89.3984C40.0375 87.8413 37.3312 85.8665 34.9492 83.5352H34.9453ZM58.0859 93.375C54.9258 93.2864 51.7932 92.7605 48.7773 91.8125C51.5942 81.4063 56.9338 71.8553 64.3231 64.0054C71.7125 56.1555 80.9235 50.2488 91.1406 46.8086C92.2638 49.7629 92.9711 52.8589 93.2422 56.0078C84.8484 59.0187 77.2869 63.9744 71.1763 70.4692C65.0658 76.964 60.58 84.8134 58.0859 93.375ZM93.1719 62.7344C92.3512 70.1604 89.1385 77.1184 84.0183 82.5592C78.898 88.0001 72.1478 91.6288 64.7852 92.8984C67.0998 86.1398 70.829 79.9524 75.724 74.749C80.6189 69.5455 86.5671 65.4456 93.1719 62.7227V62.7344Z" fill="#2A2730"/>
<path d="M158.192 65.848L153.712 60.216C152.005 57.656 150.64 55.2667 149.616 53.048C148.592 50.8293 147.867 48.0987 147.44 44.856C146.843 42.808 146.459 40.888 146.288 39.096C146.117 37.304 146.032 35.256 146.032 32.952C146.117 30.5627 146.203 27.6187 146.288 24.12C146.373 20.8773 146.885 18.232 147.824 16.184C148.763 14.0507 149.403 12.6427 149.744 11.96C151.536 10.424 152.987 10.1253 154.096 11.064C155.291 12.0027 156.144 13.5813 156.656 15.8C157.253 18.0187 157.509 20.3653 157.424 22.84C157.68 31.9707 158.235 38.8827 159.088 43.576C160.027 48.2693 161.179 51.1707 162.544 52.28C163.568 52.536 164.464 52.4507 165.232 52.024C166 51.512 166.981 50.5733 168.176 49.208C169.456 47.7573 171.205 45.88 173.424 43.576C175.813 41.1013 178.203 38.4987 180.592 35.768C182.981 32.952 185.243 30.264 187.376 27.704C189.595 25.144 191.557 22.9253 193.264 21.048C195.056 19.1707 196.464 17.9333 197.488 17.336C197.829 16.824 198.427 16.3973 199.28 16.056C200.133 15.6293 200.944 15.3307 201.712 15.16C202.565 14.904 202.992 14.776 202.992 14.776C203.675 14.9467 204.059 15.5013 204.144 16.44C204.229 17.2933 204.571 18.1467 205.168 19C205.339 19.3413 205.723 19.8533 206.32 20.536C206.917 21.2187 207.173 21.7733 207.088 22.2C207.088 22.456 206.704 23.0533 205.936 23.992C205.168 24.8453 204.357 25.6987 203.504 26.552C202.651 27.4053 202.011 28.0453 201.584 28.472C200.475 29.4107 198.725 31.0747 196.336 33.464C194.032 35.768 191.643 38.2853 189.168 41.016C186.693 43.6613 184.603 46.0507 182.896 48.184C179.141 52.536 175.771 56.2907 172.784 59.448C169.883 62.6053 168.091 64.4827 167.408 65.08C167.323 65.2507 166.768 65.3787 165.744 65.464C164.72 65.464 163.995 65.8053 163.568 66.488L158.192 65.848ZM151.024 108.728C150.683 108.643 149.957 108.259 148.848 107.576C147.824 106.893 146.885 106.253 146.032 105.656C145.435 104.973 145.051 104.248 144.88 103.48C144.795 102.712 144.923 101.688 145.264 100.408C145.605 99.128 146.075 97.336 146.672 95.032C146.757 93.0693 147.141 90.68 147.824 87.864C148.592 85.048 149.488 82.7013 150.512 80.824C150.512 79.8853 150.725 78.6053 151.152 76.984C151.579 75.3627 152.091 73.6987 152.688 71.992C153.371 70.2 153.968 68.664 154.48 67.384L156.784 60.728L161.904 56.376L168.56 60.984C168.219 61.496 167.92 62.0933 167.664 62.776C167.408 63.4587 167.067 64.6107 166.64 66.232C166.213 67.8533 165.573 70.3707 164.72 73.784C164.037 76.088 163.269 78.5627 162.416 81.208C161.648 83.8533 160.923 86.328 160.24 88.632C159.557 90.936 158.96 92.8133 158.448 94.264C157.424 98.104 156.485 101.133 155.632 103.352C154.864 105.571 154.096 107.064 153.328 107.832C152.645 108.685 151.877 108.984 151.024 108.728ZM183.308 103.224C181.772 102.371 180.919 101.432 180.748 100.408C180.663 99.384 181.26 97.592 182.54 95.032C183.82 92.472 185.825 88.504 188.556 83.128C190.604 79.288 191.969 76.3013 192.652 74.168C193.42 71.9493 193.847 70.3707 193.932 69.432C194.017 68.4933 194.06 67.896 194.06 67.64C193.889 66.872 193.975 66.2747 194.316 65.848C194.657 65.336 195.212 64.9093 195.98 64.568C196.407 64.1413 197.388 63.3733 198.924 62.264C200.46 61.1547 201.655 59.832 202.508 58.296C203.276 56.504 204.129 54.6693 205.068 52.792C206.092 50.9147 207.415 48.568 209.036 45.752C210.657 42.8507 212.833 39.096 215.564 34.488C217.271 31.5013 219.276 28.1307 221.58 24.376C223.969 20.6213 226.316 17.208 228.62 14.136C229.559 12.9413 230.54 12.0027 231.564 11.32C232.588 10.6373 233.484 10.296 234.252 10.296C236.129 10.296 238.007 10.808 239.884 11.832C241.761 12.7707 243.425 13.9653 244.876 15.416C246.327 16.8667 247.308 18.232 247.82 19.512C248.247 20.1947 248.417 21.6453 248.332 23.864C248.247 26.0827 248.076 28.7707 247.82 31.928C247.564 35.0853 247.265 38.456 246.924 42.04C246.668 45.5387 246.284 49.6773 245.772 54.456C245.26 59.2347 244.748 64.2267 244.236 69.432C243.809 74.6373 243.468 79.672 243.212 84.536C242.956 89.3147 242.956 93.496 243.212 97.08C243.297 97.848 243.297 98.5733 243.212 99.256C243.127 99.9387 243.084 100.493 243.084 100.92C242.572 101.432 241.463 101.645 239.756 101.56C238.049 101.56 236.385 101.304 234.764 100.792C233.143 100.28 232.247 99.64 232.076 98.872C231.82 98.616 231.649 98.4027 231.564 98.232C231.479 98.0613 231.479 97.2507 231.564 95.8C231.649 94.264 231.777 91.4907 231.948 87.48L232.588 67.896L230.924 68.024C230.156 68.024 228.748 68.1093 226.7 68.28C224.737 68.4507 222.561 68.7067 220.172 69.048C217.868 69.304 215.735 69.6027 213.772 69.944C211.809 70.2 210.444 70.456 209.676 70.712C208.908 70.712 207.969 71.224 206.86 72.248C205.836 73.272 204.855 74.5947 203.916 76.216C203.575 77.4107 202.935 78.6907 201.996 80.056C201.143 81.336 200.716 82.1893 200.716 82.616C200.119 83.0427 199.607 83.5547 199.18 84.152C198.839 84.7493 198.668 85.048 198.668 85.048C198.668 85.56 198.284 86.84 197.516 88.888C196.748 90.8507 195.809 93.0693 194.7 95.544C193.591 97.9333 192.439 100.024 191.244 101.816L187.788 106.68L183.308 103.224ZM213.9 59.192C213.9 59.192 214.369 59.1067 215.308 58.936C216.247 58.7653 217.356 58.5947 218.636 58.424C220.001 58.168 221.196 58.04 222.22 58.04C224.183 57.528 225.804 57.144 227.084 56.888C228.449 56.632 229.559 56.504 230.412 56.504C231.265 56.4187 231.948 56.504 232.46 56.76C232.801 57.1867 233.1 57.4427 233.356 57.528C233.697 57.6133 233.868 57.656 233.868 57.656C233.953 57.4853 234.124 56.5893 234.38 54.968C234.636 53.3467 234.935 51.3413 235.276 48.952C235.617 46.5627 235.959 44.088 236.3 41.528C236.641 38.8827 236.94 36.4507 237.196 34.232C237.452 31.928 237.623 30.136 237.708 28.856C237.793 27.2347 237.751 25.784 237.58 24.504C237.409 23.1387 237.324 22.456 237.324 22.456C236.812 22.456 235.831 23.3947 234.38 25.272C233.015 27.064 231.393 29.496 229.516 32.568C227.724 35.5547 225.932 38.7973 224.14 42.296C223.287 43.9173 222.476 45.1973 221.708 46.136C221.025 47.0747 220.471 47.544 220.044 47.544C219.873 47.7147 219.404 48.3973 218.636 49.592C217.953 50.7013 217.185 51.9813 216.332 53.432C215.564 54.7973 214.881 56.0773 214.284 57.272C213.772 58.3813 213.644 59.0213 213.9 59.192ZM256.905 103.224C256.905 103.651 256.692 103.651 256.265 103.224C255.838 102.883 255.156 102.371 254.217 101.688C253.449 100.92 252.553 99.9387 251.529 98.744C250.505 97.5493 250.036 96.1413 250.121 94.52C250.548 92.5573 251.316 89.6987 252.425 85.944C253.534 82.104 254.857 78.0933 256.393 73.912C256.564 72.2907 256.82 70.9253 257.161 69.816C257.588 68.7067 257.801 68.152 257.801 68.152C257.886 67.9813 258.057 67.7253 258.313 67.384C258.569 66.9573 258.953 66.6587 259.465 66.488C259.892 66.1467 260.062 65.5067 259.977 64.568C259.892 63.544 259.806 62.904 259.721 62.648C260.062 60.6 260.83 57.8267 262.025 54.328C263.22 50.744 264.628 46.9893 266.249 43.064C267.87 39.0533 269.406 35.3413 270.857 31.928C271.284 31.16 271.668 30.4347 272.009 29.752C272.35 28.984 272.521 28.6 272.521 28.6C272.265 28.2587 271.966 27.9173 271.625 27.576C271.284 27.2347 270.9 26.7653 270.473 26.168C269.79 25.2293 269.278 24.2053 268.937 23.096C268.681 21.9013 268.98 20.8347 269.833 19.896C270.089 19.4693 270.558 18.9147 271.241 18.232C272.009 17.5493 272.82 16.9093 273.673 16.312C275.636 15.2027 277.556 14.3493 279.433 13.752C281.396 13.0693 283.145 12.9413 284.681 13.368C287.412 13.4533 289.46 13.6667 290.825 14.008C292.276 14.3493 293.428 14.8187 294.281 15.416C294.793 15.7573 295.22 16.0133 295.561 16.184C295.988 16.3547 296.542 16.44 297.225 16.44C298.676 16.6107 300.382 17.1653 302.345 18.104C304.308 18.9573 306.057 19.8533 307.593 20.792C309.129 21.7307 310.025 22.3707 310.281 22.712C311.988 24.1627 313.481 26.1253 314.761 28.6C316.041 31.0747 316.809 33.9333 317.065 37.176C317.065 39.1387 316.98 40.888 316.809 42.424C316.638 43.8747 316.254 45.3253 315.657 46.776C315.06 48.1413 314.078 49.7627 312.713 51.64C310.153 55.6507 306.953 59.6187 303.113 63.544C299.358 67.4693 294.58 71.0533 288.777 74.296C288.606 74.6373 288.393 75.0213 288.137 75.448C287.966 75.7893 287.881 75.96 287.881 75.96C287.881 76.6427 288.308 77.5387 289.161 78.648C290.1 79.7573 291.252 80.952 292.617 82.232C293.982 83.4267 295.39 84.6213 296.841 85.816C298.377 87.0107 299.742 88.0773 300.937 89.016C302.217 89.8693 303.156 90.4667 303.753 90.808C304.862 90.4667 305.758 90.3387 306.441 90.424C307.124 90.424 307.636 90.7227 307.977 91.32C308.318 91.9173 308.532 92.9413 308.617 94.392C308.532 95.5013 308.233 96.568 307.721 97.592C307.209 98.616 306.825 99.2133 306.569 99.384C305.886 99.896 305.246 100.493 304.649 101.176C304.137 101.859 303.497 102.285 302.729 102.456C301.961 102.627 300.894 102.243 299.529 101.304C295.689 100.109 292.233 97.848 289.161 94.52C286.174 91.192 282.889 87.608 279.305 83.768C278.537 82.8293 277.897 82.1893 277.385 81.848C276.873 81.4213 276.318 81.208 275.721 81.208C275.124 81.208 274.228 81.336 273.033 81.592C272.35 81.6773 271.668 81.5067 270.985 81.08C270.388 80.6533 269.748 80.0987 269.065 79.416C268.809 78.9893 268.468 78.7333 268.041 78.648C267.7 78.5627 267.401 78.776 267.145 79.288C266.974 79.8 266.633 80.696 266.121 81.976C265.694 83.1707 265.225 84.3653 264.713 85.56C264.286 86.7547 263.86 87.6933 263.433 88.376C263.604 89.144 263.39 90.808 262.793 93.368C262.196 95.8427 261.428 98.4453 260.489 101.176C260.233 101.859 259.849 102.456 259.337 102.968C258.825 103.565 258.441 103.693 258.185 103.352C257.844 102.925 257.545 102.712 257.289 102.712C257.118 102.712 256.99 102.883 256.905 103.224ZM280.329 66.232C282.804 65.464 285.236 64.312 287.625 62.776C290.1 61.1547 292.404 59.2347 294.537 57.016C296.67 54.7973 298.42 52.4507 299.785 49.976C300.468 49.464 301.108 48.6533 301.705 47.544C302.302 46.3493 302.814 45.624 303.241 45.368C304.009 44.4293 304.521 43.704 304.777 43.192C305.118 42.68 305.076 42.04 304.649 41.272C304.649 40.5893 304.734 39.9493 304.905 39.352C305.161 38.6693 305.374 38.0293 305.545 37.432C305.972 36.2373 305.972 35.1707 305.545 34.232C305.204 33.2933 303.966 32.2267 301.833 31.032C301.065 30.52 300.254 30.0933 299.401 29.752C298.633 29.3253 297.78 28.9413 296.841 28.6C295.988 28.1733 295.006 27.704 293.897 27.192C292.532 27.192 291.124 26.8933 289.673 26.296C288.308 25.6133 287.241 25.3147 286.473 25.4C286.046 25.4853 285.62 25.9973 285.193 26.936C284.852 27.7893 284.468 29.0267 284.041 30.648C283.7 32.0133 283.273 33.2507 282.761 34.36C282.334 35.384 281.78 36.0667 281.097 36.408C281.012 36.7493 280.628 37.944 279.945 39.992C279.262 42.04 278.452 44.472 277.513 47.288C276.574 50.0187 275.636 52.792 274.697 55.608C273.758 58.3387 272.99 60.6853 272.393 62.648C271.796 64.6107 271.497 65.7627 271.497 66.104C271.497 66.2747 271.753 66.5733 272.265 67C272.862 67.4267 273.374 67.6827 273.801 67.768C273.801 67.768 273.886 67.6827 274.057 67.512C274.228 67.3413 274.398 67.2987 274.569 67.384L277.385 68.792L280.329 66.232ZM318.863 99.384C318.18 98.7013 317.626 97.6773 317.199 96.312C316.858 94.9467 316.687 93.496 316.687 91.96C316.772 90.3387 317.071 89.016 317.583 87.992C318.01 87.224 318.351 86.2427 318.607 85.048C318.863 83.768 319.034 82.5733 319.119 81.464C319.802 78.7333 320.612 75.9173 321.551 73.016C322.575 70.0293 323.642 66.8293 324.751 63.416C326.287 58.7227 327.61 54.6267 328.719 51.128C329.828 47.6293 330.938 44.3013 332.047 41.144C333.156 37.9013 334.436 34.488 335.887 30.904C336.143 30.4773 336.399 29.9653 336.655 29.368C336.996 28.6853 337.252 28.0027 337.423 27.32C337.679 26.552 337.764 25.912 337.679 25.4C337.935 24.0347 338.276 22.9253 338.703 22.072C339.215 21.1333 339.642 20.4933 339.983 20.152C340.922 19.0427 341.946 18.1467 343.055 17.464C344.164 16.696 345.06 16.4827 345.743 16.824C346.938 17.1653 348.218 17.7627 349.583 18.616C351.034 19.384 352.228 21.0053 353.167 23.48C353.679 24.248 354.148 25.0587 354.575 25.912C355.002 26.68 355.3 27.576 355.471 28.6C355.642 29.624 355.599 30.904 355.343 32.44C355.599 36.1947 356.068 40.0347 356.751 43.96C357.519 47.8853 357.818 51.4693 357.647 54.712C357.647 56.1627 357.647 58.0827 357.647 60.472C357.647 62.8613 357.647 65.336 357.647 67.896C357.732 70.3707 357.86 72.5467 358.031 74.424C358.287 76.216 358.671 77.2827 359.183 77.624C359.354 77.7093 359.439 77.9227 359.439 78.264C359.439 78.52 359.482 78.648 359.567 78.648C359.652 78.648 359.78 78.3067 359.951 77.624C360.207 76.856 360.591 75.5333 361.103 73.656C361.615 71.9493 362.426 70.2427 363.535 68.536C364.73 66.744 365.626 64.312 366.223 61.24C367.332 58.424 368.228 55.9493 368.911 53.816C369.679 51.6827 370.404 49.5067 371.087 47.288C371.77 45.0693 372.58 42.5947 373.519 39.864C373.69 39.096 373.988 38.1573 374.415 37.048C374.927 35.8533 375.482 34.616 376.079 33.336C376.676 31.9707 377.316 30.7333 377.999 29.624C378.852 27.9173 379.791 26.168 380.815 24.376C381.839 22.584 382.351 21.5173 382.351 21.176C382.351 21.176 382.351 20.9627 382.351 20.536C382.351 20.024 382.522 19.5973 382.863 19.256C383.29 18.9147 383.844 18.5307 384.527 18.104C385.21 17.6773 385.679 16.9093 385.935 15.8C386.362 15.4587 387.172 14.9893 388.367 14.392C389.562 13.7947 390.543 13.6667 391.311 14.008C391.823 14.4347 392.335 14.904 392.847 15.416C393.444 15.928 393.828 16.6533 393.999 17.592C394.255 18.5307 394.042 19.896 393.359 21.688C393.103 23.48 392.719 25.016 392.207 26.296C391.78 27.4907 391.354 28.4293 390.927 29.112C390.586 29.9653 390.202 30.9893 389.775 32.184C389.434 33.2933 389.05 34.3173 388.623 35.256C388.282 36.792 387.983 38.0293 387.727 38.968C387.556 39.9067 387.471 40.5467 387.471 40.888C387.471 40.888 387.172 41.3147 386.575 42.168C386.063 43.0213 385.423 44.088 384.655 45.368C383.46 48.44 382.522 51.0427 381.839 53.176C381.156 55.224 380.559 57.016 380.047 58.552C379.535 60.088 379.023 61.6667 378.511 63.288C377.999 64.824 377.316 66.616 376.463 68.664C376.378 69.8587 376.164 70.968 375.823 71.992C375.482 72.9307 375.098 73.7413 374.671 74.424C374.244 75.1067 373.903 75.6613 373.647 76.088C373.391 76.4293 373.263 76.6 373.263 76.6C371.13 80.184 369.295 83.5547 367.759 86.712C366.223 89.784 365.199 91.7467 364.687 92.6C364.26 93.2827 363.834 93.8373 363.407 94.264C362.98 94.6053 362.554 94.8613 362.127 95.032C361.786 95.1173 361.402 95.2027 360.975 95.288C360.634 95.3733 360.207 95.416 359.695 95.416C358.159 95.5867 356.751 95.1173 355.471 94.008C354.191 92.8133 352.954 90.936 351.759 88.376C350.223 85.2187 348.858 81.208 347.663 76.344C346.554 71.3947 345.914 66.1893 345.743 60.728C345.743 60.0453 345.743 59.2773 345.743 58.424C345.743 57.5707 345.7 56.7173 345.615 55.864C345.615 55.0107 345.572 54.2853 345.487 53.688C345.487 53.0053 345.487 51.2987 345.487 48.568C345.487 45.8373 345.402 42.5093 345.231 38.584C344.122 40.888 343.14 43.6613 342.287 46.904C341.434 50.1467 340.538 53.3893 339.599 56.632C338.66 59.7893 337.423 62.6053 335.887 65.08C335.716 66.7867 335.46 68.3227 335.119 69.688C334.778 71.0533 334.436 72.248 334.095 73.272C333.839 74.2107 333.54 74.8933 333.199 75.32C332.602 77.0267 332.09 79.032 331.663 81.336C331.322 83.64 330.98 85.3467 330.639 86.456C330.639 87.3093 330.383 88.5467 329.871 90.168C329.444 91.704 328.975 93.2827 328.463 94.904C327.951 96.44 327.567 97.6347 327.311 98.488C326.884 99.512 326.116 100.323 325.007 100.92C323.898 101.517 322.746 101.731 321.551 101.56C320.356 101.389 319.46 100.664 318.863 99.384Z" fill="white"/>
</svg>
